<?xml version="1.0" encoding="UTF-8" standalone="no"?>
<!-- Created with Inkscape (http://www.inkscape.org/) -->

<svg
   width="120mm"
   height="126mm"
   viewBox="0 0 120 126"
   version="1.1"
   id="svg5"
   xml:space="preserve"
   inkscape:version="1.2 (dc2aedaf03, 2022-05-15)"
   sodipodi:docname="concave.svg"
   inkscape:export-filename="headland2_1km.png"
   inkscape:export-xdpi="25.4"
   inkscape:export-ydpi="25.4"
   xmlns:inkscape="http://www.inkscape.org/namespaces/inkscape"
   xmlns:sodipodi="http://sodipodi.sourceforge.net/DTD/sodipodi-0.dtd"
   xmlns="http://www.w3.org/2000/svg"
   xmlns:svg="http://www.w3.org/2000/svg"><sodipodi:namedview
     id="namedview7"
     pagecolor="#ffffff"
     bordercolor="#000000"
     borderopacity="0.25"
     inkscape:showpageshadow="2"
     inkscape:pageopacity="0.0"
     inkscape:pagecheckerboard="0"
     inkscape:deskcolor="#d1d1d1"
     inkscape:document-units="mm"
     showgrid="false"
     showguides="true"
     inkscape:zoom="1.5091049"
     inkscape:cx="201.77524"
     inkscape:cy="288.91298"
     inkscape:window-width="1280"
     inkscape:window-height="667"
     inkscape:window-x="1912"
     inkscape:window-y="-8"
     inkscape:window-maximized="1"
     inkscape:current-layer="g250" /><defs
     id="defs2" /><g
     inkscape:label="Base coast"
     inkscape:groupmode="layer"
     id="layer1"
     style="display:inline;fill:#0000ff"><rect
       style="fill:#0096ff;fill-opacity:1;stroke-width:0.630154;stroke-linecap:round"
       id="rect858"
       width="120"
       height="126"
       x="0"
       y="0"
       inkscape:label="background" /><rect
       style="fill:#ffffff;fill-opacity:1;stroke-width:0.467092;stroke-linecap:round"
       id="rect2038"
       width="120"
       height="6"
       x="0"
       y="120" /></g><g
     inkscape:groupmode="layer"
     id="layer2"
     inkscape:label="Convex"
     style="display:none"><path
       style="fill:#ffffff;fill-opacity:1;stroke-width:0.738;stroke-linecap:round"
       d="m 0,120.1 c 0,0 19.463133,3.19031 30,0 10.536867,-3.19031 17.981496,-20 30,-20 12.018504,0 19.463133,16.80969 30,20 10.53687,3.19031 30,0 30,0"
       id="path2096"
       sodipodi:nodetypes="czzzc" /></g><g
     inkscape:groupmode="layer"
     id="layer2-0"
     inkscape:label="Concave"
     transform="translate(-23.094156,-22.520646)"
     style="display:inline"><rect
       style="fill:#ffffff;fill-opacity:1;stroke-width:0.97233;stroke-linecap:round"
       id="rect2038-6"
       width="120"
       height="26"
       x="23.094156"
       y="122.52065" /><path
       style="fill:#0096ff;fill-opacity:1;stroke-width:0.738;stroke-linecap:round"
       d="m 23.094156,122.43856 c 0,0 19.463133,-3.19031 30,0 10.536867,3.19031 17.981496,20 30,20 12.018504,0 19.463134,-16.80969 30.000004,-20 10.53687,-3.19031 30,0 30,0"
       id="path2096-3"
       sodipodi:nodetypes="czzzc" /></g><g
     inkscape:groupmode="layer"
     id="g269"
     inkscape:label="Headland"
     style="display:none"><path
       style="fill:#ffffff;fill-opacity:1;stroke-width:0.738;stroke-linecap:round"
       d="m 0,120.1 c 0,0 33.489108,3.19031 44.025975,0 10.536867,-3.19031 8.25563,-15.61132 18.77922,-20 3.045801,-1.270198 0.288971,13.73542 4.712646,17.50951 C 71.941516,121.3836 99.171063,120.46768 120,120.1"
       id="path267"
       sodipodi:nodetypes="czszc" /></g><g
     inkscape:groupmode="layer"
     id="g250"
     inkscape:label="Headland2"
     style="display:none"><path
       style="fill:#ffffff;fill-opacity:1;stroke-width:0.534843;stroke-linecap:round"
       d="m 0,120.7732 c 0,0 39.463133,1.67561 50,0 10.536867,-1.67561 4.643834,-10.50437 10,-10.50437 5.356166,0 -0.536867,8.82876 10,10.50437 10.53687,1.67561 50,0 50,0"
       id="path248"
       sodipodi:nodetypes="czzzc" /></g></svg>
