<?xml version="1.0" encoding="UTF-8" standalone="no"?>
<!-- Created with Inkscape (http://www.inkscape.org/) -->

<svg
   width="120mm"
   height="126mm"
   viewBox="0 0 120 126"
   version="1.1"
   id="svg5"
   xml:space="preserve"
   xmlns="http://www.w3.org/2000/svg"
   xmlns:svg="http://www.w3.org/2000/svg"><defs
     id="defs2" /><g
     id="layer1"
     style="display:inline;fill:#0000ff"><rect
       style="fill:#0096ff;fill-opacity:1;stroke-width:0.630154;stroke-linecap:round"
       id="rect858"
       width="120"
       height="126"
       x="0"
       y="0" /><rect
       style="fill:#ffffff;fill-opacity:1;stroke-width:0.467092;stroke-linecap:round"
       id="rect2038"
       width="120"
       height="6"
       x="0"
       y="120" /></g><g
     id="layer2"
     style="display:none"><path
       style="fill:#ffffff;fill-opacity:1;stroke-width:0.738;stroke-linecap:round"
       d="m 0,120.1 c 0,0 19.463133,3.19031 30,0 10.536867,-3.19031 17.981496,-20 30,-20 12.018504,0 19.463133,16.80969 30,20 10.53687,3.19031 30,0 30,0"
       id="path2096" /></g><g
     id="layer2-0"
     transform="translate(-23.094156,-22.520646)"
     style="display:none"><rect
       style="fill:#ffffff;fill-opacity:1;stroke-width:0.97233;stroke-linecap:round"
       id="rect2038-6"
       width="120"
       height="26"
       x="23.094156"
       y="122.52065" /><path
       style="fill:#0096ff;fill-opacity:1;stroke-width:0.738;stroke-linecap:round"
       d="m 23.094156,122.43856 c 0,0 19.463133,-3.19031 30,0 10.536867,3.19031 17.981496,20 30,20 12.018504,0 19.463134,-16.80969 30.000004,-20 10.53687,-3.19031 30,0 30,0"
       id="path2096-3" /></g><g
     id="g269"
     style="display:none"><path
       style="fill:#ffffff;fill-opacity:1;stroke-width:0.738;stroke-linecap:round"
       d="m 0,120.1 c 0,0 33.489108,3.19031 44.025975,0 10.536867,-3.19031 8.25563,-15.61132 18.77922,-20 3.045801,-1.270198 0.288971,13.73542 4.712646,17.50951 C 71.941516,121.3836 99.171063,120.46768 120,120.1"
       id="path267" /></g><g
     id="g250"
     style="display:none"><path
       style="fill:#ffffff;fill-opacity:1;stroke-width:0.534843;stroke-linecap:round"
       d="m 0,120.7732 c 0,0 39.463133,1.67561 50,0 10.536867,-1.67561 4.643834,-10.50437 10,-10.50437 5.356166,0 -0.536867,8.82876 10,10.50437 10.53687,1.67561 50,0 50,0"
       id="path248" /></g></svg>
